<mxfile host="app.diagrams.net" agent="Mozilla/5.0 (Windows NT 10.0; Win64; x64) AppleWebKit/537.36 (KHTML, like Gecko) Chrome/126.0.0.0 Safari/537.36" version="24.7.8">
  <diagram name="第 1 页" id="lvRVJjWS4HX3_OCLrW-c">
    <mxGraphModel dx="1434" dy="738" grid="1" gridSize="10" guides="1" tooltips="1" connect="1" arrows="1" fold="1" page="1" pageScale="1" pageWidth="1169" pageHeight="827" math="0" shadow="0">
      <root>
        <mxCell id="0" />
        <mxCell id="1" parent="0" />
        <mxCell id="kT7_No3tEYe3_QvIvQaI-7" value="4(时序)" style="label;whiteSpace=wrap;html=1;align=center;verticalAlign=bottom;spacingLeft=0;spacingBottom=4;imageAlign=center;imageVerticalAlign=top;image=img/clipart/Gear_128x128.png;fontSize=14;fillColor=#f8cecc;gradientColor=#ea6b66;strokeColor=#b85450;" vertex="1" parent="1">
          <mxGeometry x="310" y="40" width="70" height="80" as="geometry" />
        </mxCell>
        <mxCell id="kT7_No3tEYe3_QvIvQaI-8" value="9(组合)" style="label;whiteSpace=wrap;html=1;align=center;verticalAlign=bottom;spacingLeft=0;spacingBottom=4;imageAlign=center;imageVerticalAlign=top;image=img/clipart/Gear_128x128.png;fontSize=14;fillColor=#d5e8d4;gradientColor=#97d077;strokeColor=#82b366;" vertex="1" parent="1">
          <mxGeometry x="540" y="40" width="70" height="80" as="geometry" />
        </mxCell>
        <mxCell id="kT7_No3tEYe3_QvIvQaI-9" value="" style="html=1;dashed=0;whiteSpace=wrap;shape=partialRectangle;right=0;left=0;" vertex="1" parent="1">
          <mxGeometry x="110" y="40" width="200" height="40" as="geometry" />
        </mxCell>
        <mxCell id="kT7_No3tEYe3_QvIvQaI-11" value="&lt;div&gt;6&lt;/div&gt;&lt;div&gt;i&lt;/div&gt;" style="ellipse;whiteSpace=wrap;html=1;" vertex="1" parent="1">
          <mxGeometry x="270" y="40" width="40" height="40" as="geometry" />
        </mxCell>
        <mxCell id="kT7_No3tEYe3_QvIvQaI-12" value="" style="html=1;dashed=0;whiteSpace=wrap;shape=partialRectangle;right=0;left=0;" vertex="1" parent="1">
          <mxGeometry x="380" y="40" width="160" height="40" as="geometry" />
        </mxCell>
        <mxCell id="kT7_No3tEYe3_QvIvQaI-13" value="" style="html=1;dashed=0;whiteSpace=wrap;shape=partialRectangle;right=0;left=0;" vertex="1" parent="1">
          <mxGeometry x="610" y="40" width="160" height="40" as="geometry" />
        </mxCell>
        <mxCell id="kT7_No3tEYe3_QvIvQaI-14" value="13(时序)" style="label;whiteSpace=wrap;html=1;align=center;verticalAlign=bottom;spacingLeft=0;spacingBottom=4;imageAlign=center;imageVerticalAlign=top;image=img/clipart/Gear_128x128.png;fontSize=14;fillColor=#f8cecc;gradientColor=#ea6b66;strokeColor=#b85450;" vertex="1" parent="1">
          <mxGeometry x="770" y="40" width="70" height="80" as="geometry" />
        </mxCell>
        <mxCell id="kT7_No3tEYe3_QvIvQaI-15" value="22(时序)" style="label;whiteSpace=wrap;html=1;align=center;verticalAlign=bottom;spacingLeft=0;spacingBottom=4;imageAlign=center;imageVerticalAlign=top;image=img/clipart/Gear_128x128.png;fontSize=14;fillColor=#f8cecc;gradientColor=#ea6b66;strokeColor=#b85450;" vertex="1" parent="1">
          <mxGeometry x="1150" y="40" width="70" height="80" as="geometry" />
        </mxCell>
        <mxCell id="kT7_No3tEYe3_QvIvQaI-16" value="18(组合)" style="label;whiteSpace=wrap;html=1;align=center;verticalAlign=bottom;spacingLeft=0;spacingBottom=4;imageAlign=center;imageVerticalAlign=top;image=img/clipart/Gear_128x128.png;fontSize=14;fillColor=#d5e8d4;gradientColor=#97d077;strokeColor=#82b366;" vertex="1" parent="1">
          <mxGeometry x="960" y="40" width="70" height="80" as="geometry" />
        </mxCell>
        <mxCell id="kT7_No3tEYe3_QvIvQaI-17" value="" style="html=1;dashed=0;whiteSpace=wrap;shape=partialRectangle;right=0;left=0;" vertex="1" parent="1">
          <mxGeometry x="840" y="40" width="120" height="40" as="geometry" />
        </mxCell>
        <mxCell id="kT7_No3tEYe3_QvIvQaI-19" value="" style="html=1;dashed=0;whiteSpace=wrap;shape=partialRectangle;right=0;left=0;" vertex="1" parent="1">
          <mxGeometry x="1030" y="40" width="120" height="40" as="geometry" />
        </mxCell>
        <mxCell id="kT7_No3tEYe3_QvIvQaI-20" value="T=10" style="text;html=1;align=center;verticalAlign=middle;whiteSpace=wrap;rounded=0;fontSize=14;fontStyle=1" vertex="1" parent="1">
          <mxGeometry x="30" y="65" width="60" height="30" as="geometry" />
        </mxCell>
        <mxCell id="kT7_No3tEYe3_QvIvQaI-21" value="&lt;div&gt;7&lt;/div&gt;&lt;div&gt;i&lt;/div&gt;" style="ellipse;whiteSpace=wrap;html=1;" vertex="1" parent="1">
          <mxGeometry x="230" y="40" width="40" height="40" as="geometry" />
        </mxCell>
        <mxCell id="kT7_No3tEYe3_QvIvQaI-22" value="&lt;div&gt;8&lt;/div&gt;&lt;div&gt;i&lt;/div&gt;" style="ellipse;whiteSpace=wrap;html=1;" vertex="1" parent="1">
          <mxGeometry x="190" y="40" width="40" height="40" as="geometry" />
        </mxCell>
        <mxCell id="kT7_No3tEYe3_QvIvQaI-23" value="&lt;div&gt;9&lt;/div&gt;&lt;div&gt;i&lt;/div&gt;" style="ellipse;whiteSpace=wrap;html=1;" vertex="1" parent="1">
          <mxGeometry x="150" y="40" width="40" height="40" as="geometry" />
        </mxCell>
        <mxCell id="kT7_No3tEYe3_QvIvQaI-24" value="&lt;div&gt;10&lt;/div&gt;&lt;div&gt;i&lt;/div&gt;" style="ellipse;whiteSpace=wrap;html=1;" vertex="1" parent="1">
          <mxGeometry x="110" y="40" width="40" height="40" as="geometry" />
        </mxCell>
        <mxCell id="kT7_No3tEYe3_QvIvQaI-25" value="9_i =&amp;gt; 10_4" style="html=1;shadow=0;dashed=0;align=center;verticalAlign=middle;shape=mxgraph.arrows2.arrow;dy=0;dx=10;notch=0;fillColor=#fff2cc;gradientColor=#ffd966;strokeColor=#d6b656;fontFamily=Georgia;fontStyle=1" vertex="1" parent="1">
          <mxGeometry x="280" y="120" width="130" height="30" as="geometry" />
        </mxCell>
        <mxCell id="kT7_No3tEYe3_QvIvQaI-26" value="9_i =&amp;gt; 10_4" style="html=1;shadow=0;dashed=0;align=center;verticalAlign=middle;shape=mxgraph.arrows2.arrow;dy=0;dx=10;notch=0;fillColor=#fff2cc;gradientColor=#ffd966;strokeColor=#d6b656;fontFamily=Georgia;fontStyle=1" vertex="1" parent="1">
          <mxGeometry x="510" y="120" width="130" height="30" as="geometry" />
        </mxCell>
        <mxCell id="kT7_No3tEYe3_QvIvQaI-27" value="9_i =&amp;gt; 10_4" style="html=1;shadow=0;dashed=0;align=center;verticalAlign=middle;shape=mxgraph.arrows2.arrow;dy=0;dx=10;notch=0;fillColor=#fff2cc;gradientColor=#ffd966;strokeColor=#d6b656;fontFamily=Georgia;fontStyle=1" vertex="1" parent="1">
          <mxGeometry x="740" y="120" width="130" height="30" as="geometry" />
        </mxCell>
        <mxCell id="kT7_No3tEYe3_QvIvQaI-28" value="9_i =&amp;gt; 10_4" style="html=1;shadow=0;dashed=0;align=center;verticalAlign=middle;shape=mxgraph.arrows2.arrow;dy=0;dx=10;notch=0;fillColor=#fff2cc;gradientColor=#ffd966;strokeColor=#d6b656;fontFamily=Georgia;fontStyle=1" vertex="1" parent="1">
          <mxGeometry x="930" y="120" width="130" height="30" as="geometry" />
        </mxCell>
        <mxCell id="kT7_No3tEYe3_QvIvQaI-29" value="9_i =&amp;gt; 10_4" style="html=1;shadow=0;dashed=0;align=center;verticalAlign=middle;shape=mxgraph.arrows2.arrow;dy=0;dx=10;notch=0;fillColor=#fff2cc;gradientColor=#ffd966;strokeColor=#d6b656;fontFamily=Georgia;fontStyle=1" vertex="1" parent="1">
          <mxGeometry x="1120" y="120" width="130" height="30" as="geometry" />
        </mxCell>
      </root>
    </mxGraphModel>
  </diagram>
</mxfile>
